<svg width="7" height="12" viewBox="0 0 7 12" fill="none" xmlns="http://www.w3.org/2000/svg">
<path d="M5.27558 6.00408L0.624395 10.6553C0.466191 10.8135 0.389726 10.998 0.395 11.209C0.400273 11.4199 0.482011 11.6045 0.640215 11.7627C0.798419 11.9209 0.98299 12 1.19393 12C1.40487 12 1.58944 11.9209 1.74764 11.7627L6.62031 6.90584C6.74687 6.77928 6.8418 6.6369 6.90508 6.47869C6.96836 6.32049 7 6.16229 7 6.00408C7 5.84588 6.96836 5.68768 6.90508 5.52947C6.8418 5.37127 6.74687 5.22889 6.62031 5.10232L1.74764 0.22965C1.58944 0.0714468 1.40223 -0.00501829 1.18602 0.000255167C0.969806 0.00552862 0.782598 0.0872672 0.624395 0.245471C0.466191 0.403674 0.38709 0.588245 0.38709 0.799183C0.38709 1.01012 0.466191 1.19469 0.624395 1.3529L5.27558 6.00408Z" fill="white"/>
</svg>
