<svg width="18" height="18" viewBox="0 0 18 18" fill="none" xmlns="http://www.w3.org/2000/svg">
<mask id="mask0_216_3476" style="mask-type:alpha" maskUnits="userSpaceOnUse" x="0" y="0" width="18" height="18">
<rect x="18" y="18" width="18" height="18" transform="rotate(-180 18 18)" fill="#D9D9D9"/>
</mask>
<g mask="url(#mask0_216_3476)">
<path d="M15.4134 8.99387L8.43659 2.0171C8.19929 1.77979 8.08459 1.50293 8.0925 1.18653C8.10041 0.870119 8.22302 0.593263 8.46032 0.355958C8.69763 0.118652 8.97448 -5.22745e-07 9.29089 -5.22745e-07C9.6073 -5.22745e-07 9.88416 0.118652 10.1215 0.355958L17.4305 7.64123C17.6203 7.83108 17.7627 8.04465 17.8576 8.28196C17.9525 8.51926 18 8.75657 18 8.99387C18 9.23118 17.9525 9.46849 17.8576 9.70579C17.7627 9.9431 17.6203 10.1567 17.4305 10.3465L10.1215 17.6555C9.88416 17.8928 9.60334 18.0075 9.27903 17.9996C8.95471 17.9917 8.6739 17.8691 8.43659 17.6318C8.19929 17.3945 8.08063 17.1176 8.08063 16.8012C8.08063 16.4848 8.19929 16.208 8.43659 15.9707L15.4134 8.99387Z" fill="#1E212B"/>
</g>
</svg>
