<svg width="27" height="27" viewBox="0 0 27 27" fill="none" xmlns="http://www.w3.org/2000/svg">
<path fill-rule="evenodd" clip-rule="evenodd" d="M5 19.125C5 18.5037 5.50368 18 6.125 18H22.5C23.1213 18 23.625 18.5037 23.625 19.125C23.625 19.7463 23.1213 20.25 22.5 20.25H6.125C5.50368 20.25 5 19.7463 5 19.125ZM5 13.5C5 12.8787 5.50368 12.375 6.125 12.375H22.5C23.1213 12.375 23.625 12.8787 23.625 13.5C23.625 14.1213 23.1213 14.625 22.5 14.625H6.125C5.50368 14.625 5 14.1213 5 13.5ZM5 7.875C5 7.25368 5.50368 6.75 6.125 6.75H22.5C23.1213 6.75 23.625 7.25368 23.625 7.875C23.625 8.49632 23.1213 9 22.5 9H6.125C5.50368 9 5 8.49632 5 7.875Z" fill="white"/>
</svg>
